#!OML:ASF H:\MichaelJackson\Top Level 1\Subject 1\Session 1\male.ASF
:FULLY-SPECIFIED
:DEGREES
195
root 3.31073 18.9036 -4.22993 -0.870595 9.06812 -5.78543
lowerback -0.777233 2.32221 0.157142
upperback 0.954142 3.06285 3.38877
thorax 1.23682 1.52076 3.44606
lowerneck -11.1646 -7.71221 0.0491921
upperneck 13.7604 -10.9625 3.05208
head 6.17969 -5.06762 0.0103804
rclavicle -2.02885e-014 7.55382e-015
rhumerus -18.7612 -0.337201 12.9968
rradius 25.5231
rwrist 0.875841
rhand -41.7394 -43.385
rfingers 7.12502
rthumb -14.6441 -72.8479
lclavicle -2.02885e-014 7.55382e-015
lhumerus -31.8738 -3.4359 4.12501
lradius 67.0055
lwrist 34.648
lhand -14.4139 7.75821
lfingers 7.12502
lthumb 11.73 37.4098
rfemur -24.9298 -8.11623 19.1311
rtibia 61.1475
rfoot 14.284 3.21188
rtoes 19.6118
lfemur -15.578 -8.87608 -16.1147
ltibia 43.0765
lfoot 12.3911 -12.1608
ltoes 25.2874
196
root 3.2502 18.543 -4.08381 -0.709796 10.0749 -6.0647
lowerback -1.28139 2.17674 0.252064
upperback 0.818929 2.86235 3.14937
thorax 1.40911 1.42134 3.1615
lowerneck -11.0727 -7.66697 0.113446
upperneck 13.1714 -10.9027 3.20082
head 5.98197 -5.04162 0.0695933
rclavicle 2.94232e-014 -3.03147e-014
rhumerus -21.4117 -1.20751 13.6546
rradius 25.0409
rwrist 3.4162
rhand -42.2986 -44.2285
rfingers 7.12502
rthumb -15.1828 -73.6514
lclavicle 2.94232e-014 -3.03147e-014
lhumerus -33.7712 -4.30364 5.14034
lradius 64.8897
lwrist 33.8574
lhand -14.0866 7.69425
lfingers 7.12502
lthumb 12.0456 37.3276
rfemur -23.6263 -6.95037 19.9624
rtibia 58.657
rfoot 14.2416 2.02393
rtoes 20.7374
lfemur -16.073 -8.81758 -15.8896
ltibia 43.9321
lfoot 10.4035 -11.991
ltoes 24.9652
197
root 3.19568 18.1826 -3.95644 -0.610544 11.0371 -6.3649
lowerback -1.51565 2.07819 0.465697
upperback 0.736473 2.7257 2.9387
thorax 1.48305 1.35554 2.8294
lowerneck -10.9148 -7.62177 0.172708
upperneck 12.3371 -10.823 3.32792
head 5.69522 -5.01605 0.132871
rclavicle -2.67247e-014 -4.75064e-015
rhumerus -24.1912 -2.46533 14.5308
rradius 24.46
rwrist 6.4345
rhand -42.7335 -45.3871
rfingers 7.12502
rthumb -15.6017 -74.7779
lclavicle -2.67247e-014 -4.75064e-015
lhumerus -35.8495 -5.24872 6.69681
lradius 63.0829
lwrist 33.3473
lhand -13.77 7.68334
lfingers 7.12502
lthumb 12.3509 37.2985
rfemur -22.6035 -5.98046 20.7401
rtibia 56.8439
rfoot 13.4642 0.60647
rtoes 20.9821
lfemur -16.5373 -9.09061 -15.589
ltibia 45.3533
lfoot 6.78239 -11.9486
ltoes 24.3019
198
root 3.14569 17.8221 -3.84917 -0.574549 11.8893 -6.68301
lowerback -1.47533 2.03075 0.789742
upperback 0.714417 2.65882 2.76163
thorax 1.4638 1.32591 2.46176
lowerneck -10.7039 -7.5661 0.209806
upperneck 11.2969 -10.7127 3.45594
head 5.33744 -4.98304 0.20874
rclavicle 4.11453e-014 -1.08338e-014
rhumerus -27.0834 -4.06211 15.5862
rradius 23.8335
rwrist 9.51613
rhand -43.0561 -46.9434
rfingers 7.12502
rthumb -15.9124 -76.3097
lclavicle 4.11453e-014 -1.08338e-014
lhumerus -38.1413 -6.11533 8.82386
lradius 61.621
lwrist 33.0713
lhand -13.4147 7.72768
lfingers 7.12502
lthumb 12.6935 37.3219
rfemur -21.8469 -5.16094 21.449
rtibia 55.8508
rfoot 11.5604 -0.715705
rtoes 20.1271
lfemur -16.9662 -9.57115 -15.2124
ltibia 47.2813
lfoot 1.62889 -12.097
ltoes 23.0083
199
root 3.09869 17.4661 -3.76081 -0.593497 12.5982 -7.00245
lowerback -1.16763 2.04178 1.20494
upperback 0.736457 2.67472 2.59222
thorax 1.34025 1.33853 2.04379
lowerneck -10.3999 -7.50235 0.270649
upperneck 10.0879 -10.5859 3.5987
head 4.91332 -4.94592 0.293595
rclavicle 2.82274e-014 -1.05356e-014
rhumerus -30.1331 -5.8326 16.7129
rradius 23.2131
rwrist 12.2427
rhand -43.2591 -48.8872
rfingers 7.12502
rthumb -16.1079 -78.2378
lclavicle 2.82274e-014 -1.05356e-014
lhumerus -40.5705 -6.78823 11.489
lradius 60.4766
lwrist 32.9326
lhand -12.9899 7.7749
lfingers 7.12502
lthumb 13.103 37.3433
rfemur -21.3896 -4.54501 22.0737
rtibia 55.776
rfoot 8.3047 -1.4817
rtoes 16.6247
lfemur -17.3471 -10.1147 -14.7845
ltibia 49.5931
lfoot -4.71988 -12.2665
ltoes 21.3039
200
root 3.05246 17.1138 -3.68913 -0.644166 13.1341 -7.27678
lowerback -0.642934 2.08867 1.62796
upperback 0.812828 2.74615 2.4323
thorax 1.15021 1.3784 1.62527
lowerneck -10.0437 -7.41247 0.332417
upperneck 8.78666 -10.4199 3.7662
head 4.45572 -4.89134 0.391537
rclavicle -1.73937e-014 -5.96354e-016
rhumerus -33.2757 -7.57398 17.7258
rradius 22.6473
rwrist 14.1871
rhand -43.2938 -51.2451
rfingers 7.12502
rthumb -16.1413 -80.593
lclavicle -1.73937e-014 -5.96354e-016
lhumerus -43.0947 -7.0935 14.661
lradius 59.5304
lwrist 32.7725
lhand -12.5706 7.78602
lfingers 7.12502
lthumb 13.5071 37.328
rfemur -21.2428 -4.1674 22.5665
rtibia 56.6388
rfoot 3.88887 -1.70168
rtoes 10.5908
lfemur -17.6778 -10.5454 -14.3656
ltibia 52.1342
lfoot -11.7191 -12.2206
ltoes 19.5445
201
root 3.00581 16.7687 -3.63079 -0.66845 13.4717 -7.44183
lowerback 0.024887 2.16458 1.96297
upperback 0.922441 2.86497 2.26167
thorax 0.911575 1.44057 1.23998
lowerneck -9.6787 -7.29712 0.352754
upperneck 7.21333 -10.2066 3.91807
head 4.32856 -4.82461 0.551321
rclavicle -1.54804e-014 1.37161e-014
rhumerus -36.4615 -9.15725 18.4281
rradius 22.1311
rwrist 15.2092
rhand -43.1419 -53.7441
rfingers 7.12502
rthumb -15.995 -83.1038
lclavicle -1.54804e-014 1.37161e-014
lhumerus -45.6103 -6.98182 18.2792
lradius 58.6425
lwrist 32.4907
lhand -12.3347 7.73204
lfingers 7.12502
lthumb 13.7345 37.2588
rfemur -21.4366 -4.03772 22.8677
rtibia 58.3636
rfoot -1.41164 -1.59078
rtoes 2.14039
lfemur -17.9823 -10.7275 -14.0384
ltibia 54.7098
lfoot -18.7113 -11.743
ltoes 18.033
202
root 2.95836 16.4373 -3.5818 -0.611675 13.6227 -7.45901
lowerback 0.74037 2.25157 2.13931
upperback 1.04927 3.00322 2.06744
thorax 0.659308 1.51074 0.915957
lowerneck -9.26752 -7.14123 0.473617
upperneck 6.06451 -9.96377 4.10671
head 3.8349 -4.72685 0.649229
rclavicle -4.72611e-014 -1.59028e-015
rhumerus -39.6225 -10.5083 18.61
rradius 21.6758
rwrist 15.3004
rhand -42.7731 -56.0857
rfingers 7.12502
rthumb -15.6398 -85.4735
lclavicle -4.72611e-014 -1.59028e-015
lhumerus -48.01 -6.45879 22.2777
lradius 57.6663
lwrist 32.047
lhand -12.5118 7.64154
lfingers 7.12502
lthumb 13.5637 37.1797
rfemur -21.9903 -4.11456 22.9463
rtibia 60.7772
rfoot -7.05962 -1.51997
rtoes -5.65229
lfemur -18.2716 -10.6263 -13.8545
ltibia 57.1539
lfoot -25.2374 -10.7431
ltoes 16.8037
203
root 2.91114 16.1284 -3.53784 -0.433188 13.6138 -7.3158
lowerback 1.42073 2.33128 2.12383
upperback 1.17733 3.1299 1.844
thorax 0.42125 1.57365 0.668516
lowerneck -8.86529 -6.94953 0.623211
upperneck 5.06067 -9.68176 4.30636
head 3.40169 -4.60586 0.741557
rclavicle 1.41634e-015 -1.23246e-014
rhumerus -42.671 -11.5998 18.0753
rradius 21.2975
rwrist 14.5593
rhand -42.1527 -57.9859
rfingers 7.12502
rthumb -15.0423 -87.4194
lclavicle 1.41634e-015 -1.23246e-014
lhumerus -50.1938 -5.56823 26.5926
lradius 56.4856
lwrist 31.486
lhand -13.2609 7.57364
lfingers 7.12502
lthumb 12.8416 37.1586
rfemur -22.8955 -4.36388 22.8022
rtibia 63.6445
rfoot -12.3898 -1.50343
rtoes -10.9419
lfemur -18.5973 -10.2855 -13.8459
ltibia 59.3329
lfoot -30.8446 -9.28879
ltoes 15.6523
204
root 2.86558 15.8515 -3.49567 -0.106935 13.5073 -7.01531
lowerback 2.0125 2.37911 1.91898
upperback 1.28753 3.20687 1.57869
thorax 0.207232 1.61065 0.486148
lowerneck -8.48438 -6.7336 0.812828
upperneck 4.22289 -9.37748 4.51264
head 3.03489 -4.46972 0.823274
rclavicle -2.28602e-015 -7.95139e-015
rhumerus -45.5305 -12.4069 16.6343
rradius 21.0283
rwrist 13.0963
rhand -41.2889 -59.1221
rfingers 7.12502
rthumb -14.21 -88.616
lclavicle -2.28602e-015 -7.95139e-015
lhumerus -52.0612 -4.36983 31.1072
lradius 55.0589
lwrist 30.9626
lhand -14.398 7.71486
lfingers 7.12502
lthumb 11.7453 37.3656
rfemur -24.1301 -4.78291 22.4559
rtibia 66.7347
rfoot -16.8605 -1.28592
rtoes -13.1407
lfemur -18.9663 -9.81527 -14.0186
ltibia 61.2181
lfoot -35.5326 -7.44675
ltoes 14.2788
205
root 2.82288 15.6102 -3.45384 0.365423 13.376 -6.60478
lowerback 2.48641 2.36526 1.56615
upperback 1.3757 3.19182 1.29019
thorax 0.0295055 1.60118 0.368416
lowerneck -8.14447 -6.49806 1.0217
upperneck 3.54028 -9.05397 4.71982
head 2.73255 -4.32072 0.895824
rclavicle 6.95746e-016 6.36111e-015
rhumerus -48.101 -12.9918 14.1787
rradius 20.9018
rwrist 11.0761
rhand -40.2066 -59.3368
rfingers 7.12502
rthumb -13.1669 -88.9011
lclavicle 6.95746e-016 6.36111e-015
lhumerus -53.5542 -2.89246 35.738
lradius 53.4256
lwrist 30.6504
lhand -15.7708 8.16646
lfingers 7.12502
lthumb 10.4212 37.8882
rfemur -25.6763 -5.35048 21.9828
rtibia 69.8271
rfoot -20.1225 -0.824617
rtoes -13.8064
lfemur -19.4511 -9.33568 -14.3298
ltibia 62.872
lfoot -39.2808 -5.36494
ltoes 12.8058
